# xmcd
#
# Track frame offsets:
#	150
#	14181
#	30531
#	48616
#	66525
#	79176
#	98961
#	118206
#	133572
#	149976
#
# Disc length: 3062 seconds
#
# Revision: 1
# Processed by: cddbd v1.4PL0 Copyright (c) Steve Scherf et al.
# Submitted via: EasyCDDAExtractor 5.1.0
#
DISCID=a00bf40a
DTITLE=何韻詩 - Dress Me Up
DYEAR=2003
DGENRE=pop
TTITLE0=懶
TTITLE1=忘
TTITLE2=我是芭比
TTITLE3=沙
TTITLE4=娃鬼回魂
TTITLE5=迪里斯的婚禮
TTITLE6=兩位一體
TTITLE7=元神出竅
TTITLE8=無家可歸
TTITLE9=出生入死
EXTD=
EXTT0=
EXTT1=
EXTT2=
EXTT3=
EXTT4=
EXTT5=
EXTT6=
EXTT7=
EXTT8=
EXTT9=
PLAYORDER=
